<svg width="25" height="16" viewBox="0 0 25 16" fill="none" xmlns="http://www.w3.org/2000/svg">
<path d="M5.065 10.8188C6.21088 10.5407 7.30465 10.1334 8.31527 9.60841C8.18715 9.04274 8.14048 8.46657 8.17623 7.89187C8.21996 6.98902 8.55399 6.11197 9.14409 5.35056C9.69858 4.68253 10.4118 4.11426 11.2405 3.68018C11.6016 3.51493 12.1127 3.241 12.1127 3.241C11.7041 3.01882 11.2683 2.8327 10.8126 2.68569C9.64968 2.44898 6.22065 2.59786 4.00325 4.21167C1.78584 5.82548 0.299747 9.01142 0 11.4396C1.71747 11.4541 3.42693 11.2446 5.065 10.8188Z" fill="#E382D3"/>
<path d="M19.9332 10.8188C18.7873 10.5407 17.6935 10.1334 16.6829 9.60841C16.811 9.04274 16.8577 8.46657 16.822 7.89187C16.7788 6.98916 16.4454 6.11212 15.8559 5.35056C15.3014 4.68253 14.5882 4.11426 13.7595 3.68018C13.3983 3.51493 12.8873 3.241 12.8873 3.241C13.2959 3.01882 13.7317 2.8327 14.1874 2.68569C15.3503 2.44898 18.7793 2.59786 20.9968 4.21167C23.2142 5.82548 24.7002 9.01142 25 11.4396C23.2819 11.4543 21.5718 11.2447 19.9332 10.8188Z" fill="#E382D3"/>
<path d="M8.86786 10.0564C9.08712 10.7734 9.38946 11.4714 9.77071 12.1407C10.4712 13.4042 11.4009 14.5724 12.528 15.605C14.0556 14.2652 15.5977 12.0633 16.1936 9.99987C16.3564 9.45907 16.4424 8.90452 16.45 8.34735C16.45 6.37773 15.4244 5.08251 13.7884 4.02996C13.3837 3.77375 12.9617 3.53665 12.5244 3.31982C12.1185 3.5218 11.7255 3.74094 11.3471 3.97637C10.7789 4.32462 10.2694 4.73365 9.8321 5.19268C9.05204 6.02936 8.60242 7.03874 8.60242 8.34289C8.60845 8.92072 8.69756 9.49592 8.86786 10.0564Z" fill="#E382D3"/>
<path d="M9.10799 0.972158C6.71905 0.570194 3.00291 0.290307 0.301575 0.22778C0.411723 0.875389 1.78225 2.29715 4.03216 2.79142C6.28207 3.28569 9.28496 1.54682 11.775 2.77355C11.9946 2.89542 12.231 2.99537 12.4792 3.07131C12.6965 2.99413 12.9055 2.902 13.104 2.79588C15.502 1.80288 18.7667 3.27973 21.0166 2.78397C23.2665 2.28822 24.5431 0.867944 24.6551 0.220335C21.9465 0.282863 18.2376 0.561261 15.8487 0.964714C15.9804 1.05971 16.079 1.18205 16.134 1.31904C15.632 0.844125 14.0972 0.329015 12.5009 0C10.8884 0.327526 9.25064 0.882834 8.81366 1.37859C8.85386 1.21978 8.95749 1.07667 9.10799 0.972158Z" fill="#E382D3"/>
</svg>
