<svg width="328" height="351" viewBox="0 0 328 351" fill="none" xmlns="http://www.w3.org/2000/svg">
<path opacity="0.9" d="M164 344C254.022 344 327 271.022 327 181C327 90.9776 254.022 18 164 18C73.9776 18 1 90.9776 1 181C1 271.022 73.9776 344 164 344Z" stroke="white" stroke-width="2" stroke-miterlimit="10"/>
<path opacity="0.9" d="M164 339C251.261 339 322 268.261 322 181C322 93.739 251.261 23 164 23C76.739 23 6 93.739 6 181C6 268.261 76.739 339 164 339Z" stroke="white" stroke-miterlimit="10"/>
<g opacity="0.9">
<path d="M183.869 324.62C181.583 325.29 179.4 326.273 177.382 327.539C177.639 328.911 177.733 330.309 177.662 331.703C177.574 333.898 176.903 336.03 175.718 337.88C174.609 339.501 173.183 340.879 171.525 341.933C170.813 342.336 169.774 342.995 169.774 342.995C170.592 343.535 171.465 343.987 172.378 344.344C174.714 344.928 181.563 344.554 185.995 340.642C190.426 336.73 193.399 328.999 194 323.125C190.565 323.086 187.146 323.591 183.869 324.62Z" fill="white"/>
<path d="M154.131 324.62C156.417 325.29 158.6 326.273 160.618 327.539C160.361 328.911 160.267 330.309 160.338 331.703C160.426 333.898 161.097 336.03 162.282 337.88C163.391 339.501 164.817 340.879 166.475 341.933C167.187 342.336 168.226 342.995 168.226 342.995C167.408 343.535 166.535 343.987 165.622 344.344C163.286 344.928 156.437 344.554 152.005 340.642C147.574 336.73 144.601 328.999 144 323.125C147.435 323.086 150.854 323.591 154.131 324.62Z" fill="white"/>
<path d="M176.261 326.465C175.827 324.724 175.227 323.029 174.468 321.402C173.066 318.338 171.205 315.504 168.95 313C165.452 316.881 162.937 321.544 161.616 326.599C161.29 327.912 161.118 329.258 161.103 330.611C161.103 335.387 163.152 338.528 166.422 341.074C167.229 341.706 168.071 342.29 168.944 342.826C169.75 342.335 170.529 341.803 171.28 341.232C172.417 340.388 173.436 339.396 174.311 338.283C175.98 336.092 176.848 333.394 176.769 330.64C176.766 329.233 176.595 327.832 176.261 326.465Z" fill="white"/>
<path d="M175.782 348.478C181.599 349.518 187.486 350.121 193.393 350.283C193.171 348.712 190.432 345.261 185.93 344.064C181.428 342.867 175.42 347.083 170.445 344.105C170.007 343.805 169.535 343.558 169.038 343.369C168.603 343.555 168.185 343.778 167.788 344.035C162.994 346.44 156.461 342.867 151.964 344.035C147.468 345.202 144.911 348.706 144.689 350.253C150.597 350.102 156.486 349.509 162.305 348.478C162.037 348.25 161.836 347.953 161.722 347.62C162.726 348.788 165.809 350.02 168.991 350.82C172.22 350.026 175.484 348.677 176.366 347.474C176.291 347.865 176.085 348.22 175.782 348.478Z" fill="white"/>
</g>
<g opacity="0.9">
<path d="M92.3623 333.668C91.2397 333.004 90.1583 332.189 89.1312 331.233C87.2242 329.49 85.4955 327.332 84 324.827C86.9798 322.128 90.3252 320.498 93.7818 320.059C94.7027 319.95 95.6286 319.992 96.5435 320.185C97.8924 320.423 99.1857 321.138 100.32 322.274C101.453 323.41 102.396 324.934 103.072 326.725C103.415 327.567 103.724 328.439 104 329.336C103.596 330.019 103.168 330.669 102.719 331.283C102.04 332.223 101.282 333.022 100.465 333.659C98.8074 334.891 96.9346 335.288 95.1185 334.793C94.1755 334.571 93.2513 334.194 92.3623 333.668Z" fill="white"/>
<path d="M113.803 331.217C112.835 329.476 112.06 327.658 111.487 325.786C110.381 322.277 109.887 318.64 110.022 315C116.357 315.783 122.387 317.897 127.604 321.165C128.946 322.021 130.171 323.012 131.253 324.118C135.034 328.063 135.583 332.084 134.524 336.464C134.258 337.539 133.924 338.6 133.522 339.642C132.376 339.803 131.221 339.912 130.062 339.967C128.333 340.061 126.597 339.952 124.901 339.642C121.607 338.997 118.664 337.375 116.563 335.046C115.475 333.87 114.548 332.585 113.803 331.217Z" fill="white"/>
</g>
<path opacity="0.9" d="M221.865 330.944C222.936 329.175 223.837 327.306 224.556 325.362C225.933 321.722 226.758 317.891 227 314C221.056 314.248 215.258 315.942 210.093 318.939C208.764 319.732 207.531 320.68 206.418 321.762C202.532 325.63 201.608 329.863 202.136 334.624C202.273 335.796 202.476 336.959 202.743 338.108C203.789 338.383 204.848 338.604 205.916 338.769C207.51 339.027 209.13 339.069 210.735 338.894C213.847 338.503 216.733 337.04 218.911 334.749C220.04 333.604 221.032 332.326 221.865 330.944Z" fill="white"/>
<path opacity="0.9" d="M238.638 337.668C239.76 337.004 240.842 336.189 241.869 335.233C243.776 333.49 245.505 331.332 247 328.827C244.02 326.128 240.675 324.498 237.218 324.059C236.297 323.95 235.371 323.992 234.457 324.185C233.108 324.423 231.814 325.138 230.68 326.274C229.547 327.41 228.604 328.934 227.928 330.725C227.585 331.567 227.276 332.439 227 333.336C227.404 334.019 227.832 334.669 228.281 335.283C228.96 336.223 229.718 337.022 230.535 337.659C232.193 338.891 234.065 339.288 235.882 338.793C236.824 338.571 237.749 338.194 238.638 337.668Z" fill="white"/>
<path opacity="0.9" d="M110.944 5.1346C109.175 4.06365 107.306 3.16271 105.362 2.44421C101.722 1.06653 97.8913 0.24235 94 -1.09278e-06C94.2477 5.94371 95.9417 11.742 98.9394 16.9073C99.7324 18.2358 100.68 19.4691 101.762 20.5824C105.63 24.4685 109.863 25.3917 114.624 24.8641C115.796 24.7268 116.959 24.5242 118.108 24.2575C118.383 23.2114 118.604 22.152 118.769 21.0835C119.027 19.4901 119.069 17.8698 118.894 16.2654C118.503 13.1535 117.04 10.2674 114.749 8.08874C113.604 6.9597 112.326 5.96809 110.944 5.1346Z" fill="white"/>
<path opacity="0.9" d="M51.4529 45.3324C50.0496 45.9959 48.6978 46.8107 47.414 47.7671C45.0303 49.5101 42.8693 51.6683 41 54.1728C44.7248 56.8716 48.9065 58.5024 53.2273 58.9414C54.3784 59.0499 55.5357 59.0076 56.6794 58.8155C58.3655 58.5773 59.9821 57.8615 61.3994 56.7257C62.8167 55.5899 63.9952 54.0656 64.8401 52.2755C65.2682 51.4333 65.6555 50.5615 66 49.6645C65.4948 48.9812 64.9602 48.331 64.3982 47.7167C63.5499 46.7767 62.6026 45.9777 61.5813 45.3408C59.5092 44.1091 57.1683 43.7121 54.8981 44.2075C53.7194 44.4287 52.5642 44.806 51.4529 45.3324Z" fill="white"/>
<path opacity="0.9" d="M216.883 4.5731C218.597 3.5589 220.394 2.73447 222.249 2.11111C225.727 0.910499 229.349 0.318179 232.991 0.35461C232.38 6.70915 230.43 12.7941 227.305 18.0976C226.485 19.462 225.527 20.7129 224.451 21.825C220.609 25.7115 216.605 26.3684 212.198 25.4285C211.116 25.1918 210.046 24.8861 208.994 24.5128C208.802 23.3714 208.662 22.22 208.575 21.063C208.435 19.337 208.497 17.599 208.761 15.8948C209.316 12.5851 210.859 9.59933 213.13 7.43599C214.276 6.31609 215.535 5.35505 216.883 4.5731Z" fill="white"/>
<path opacity="0.9" d="M274.547 45.3324C275.95 45.9959 277.302 46.8107 278.586 47.7671C280.97 49.5101 283.131 51.6683 285 54.1728C281.275 56.8716 277.094 58.5024 272.773 58.9414C271.622 59.0499 270.464 59.0076 269.321 58.8155C267.635 58.5773 266.018 57.8615 264.601 56.7257C263.183 55.5899 262.005 54.0656 261.16 52.2755C260.732 51.4333 260.345 50.5615 260 49.6645C260.505 48.9812 261.04 48.331 261.602 47.7167C262.45 46.7767 263.397 45.9777 264.419 45.3408C266.491 44.1091 268.832 43.7121 271.102 44.2075C272.281 44.4287 273.436 44.806 274.547 45.3324Z" fill="white"/>
<path opacity="0.9" d="M78.1346 39.0559C77.0637 40.8248 76.1627 42.6943 75.4442 44.6384C74.0665 48.2776 73.2424 52.1087 73 56C78.9437 55.7523 84.742 54.0583 89.9073 51.0606C91.2358 50.2676 92.4691 49.3204 93.5824 48.2381C97.4685 44.3705 98.3917 40.1367 97.8641 35.3759C97.7268 34.2041 97.5242 33.041 97.2575 31.8924C96.2114 31.6166 95.152 31.396 94.0835 31.2315C92.4901 30.9727 90.8698 30.9307 89.2654 31.1064C86.1535 31.4971 83.2674 32.9599 81.0887 35.2509C79.9597 36.3964 78.9681 37.6736 78.1346 39.0559Z" fill="white"/>
<path opacity="0.9" d="M251.983 39.7832C252.951 41.5237 253.726 43.3423 254.299 45.2139C255.405 48.7227 255.899 52.3598 255.764 56C249.429 55.2171 243.399 53.103 238.182 49.8353C236.84 48.979 235.615 47.988 234.533 46.8823C230.752 42.9365 230.203 38.9157 231.262 34.5362C231.528 33.4609 231.863 32.3998 232.264 31.3579C233.41 31.1969 234.565 31.0883 235.724 31.0325C237.453 30.9387 239.189 31.0481 240.885 31.3579C244.179 32.0027 247.122 33.6252 249.223 35.9543C250.311 37.1298 251.238 38.4151 251.983 39.7832Z" fill="white"/>
</svg>
