<svg width="42" height="31" viewBox="0 0 42 31" fill="none" xmlns="http://www.w3.org/2000/svg">
<path d="M39.8344 6.69778C39.5777 7.16482 39.2361 7.66102 38.8239 7.9939C38.277 8.43678 37.6571 8.59426 36.9743 8.51135C36.9371 8.5047 36.8989 8.50569 36.862 8.51427C36.8893 8.53093 36.9162 8.5476 36.9422 8.56343C37.7257 9.02172 38.1628 9.7179 38.2506 10.6424C38.2818 10.9703 38.2658 11.3027 38.2694 11.6335C38.2671 11.6794 38.2618 11.7251 38.2534 11.7702L37.5866 11.6315C37.5593 11.8773 37.5336 12.1064 37.5064 12.346C37.2356 12.2796 36.9697 12.1931 36.7109 12.0873C36.3603 11.9457 36.0356 11.7431 35.7506 11.4881C35.3392 11.1132 35.109 10.6316 35.0012 10.0812C34.9928 10.0395 34.9851 9.99787 34.9727 9.92746C34.943 10.0558 34.9214 10.1591 34.8953 10.2608C34.6832 11.0974 34.1736 11.6694 33.4214 12.0106C33.109 12.1531 32.7762 12.2493 32.4366 12.3718C32.4078 12.1089 32.3821 11.8781 32.3536 11.6219C32.1563 11.6635 31.9691 11.7052 31.7734 11.7502L31.6872 11.7685C31.6788 11.666 31.6668 11.5602 31.6616 11.4523C31.6335 10.8365 31.6872 10.2349 31.9523 9.67124C31.9819 9.60833 32.0132 9.54625 32.0469 9.48876C32.2718 9.09597 32.5981 8.77645 32.9887 8.56635C33.0142 8.54895 33.0427 8.53691 33.0725 8.53093C32.8993 8.53093 32.7257 8.53343 32.5513 8.53093C32.0497 8.52343 31.6042 8.35053 31.2025 8.04348C30.7398 7.68893 30.3961 7.22981 30.1102 6.71028C30.3107 6.61862 30.5112 6.52988 30.7313 6.42905L30.7458 6.42239L30.3825 5.7912C30.5208 5.73621 30.6556 5.68121 30.7911 5.62955C31.2181 5.46136 31.6725 5.38072 32.1291 5.39207C32.7349 5.41207 33.2538 5.6483 33.7029 6.06367L33.8163 6.1695C33.8139 6.14888 33.8098 6.12853 33.8039 6.10867C33.3789 5.21876 33.4591 4.35551 33.931 3.5135C34.1004 3.20928 34.3035 2.9267 34.5361 2.6715C34.6876 2.84732 34.8348 3.01897 34.9924 3.2027L35.4607 2.6665C35.7843 3.06688 36.0745 3.47768 36.2626 3.95805C36.5413 4.66631 36.5192 5.36416 36.2057 6.05451C36.1924 6.08367 36.18 6.11325 36.1559 6.16741C36.1789 6.15261 36.201 6.13633 36.2221 6.11867C36.9158 5.43665 37.7389 5.26 38.6491 5.4704C38.9699 5.54456 39.281 5.66621 39.6154 5.77245C39.5549 5.87827 39.5072 5.9591 39.4623 6.04118C39.4174 6.12325 39.3692 6.21449 39.3255 6.30282C39.2674 6.41947 39.2678 6.42114 39.3785 6.47613C39.5284 6.54988 39.6784 6.62154 39.8344 6.69778Z" fill="white"/>
<path d="M39.8348 6.69681L39.8393 6.6886L39.8348 6.69681Z" fill="white" stroke="#E382D3" stroke-miterlimit="10"/>
<path d="M36.532 24.6722C36.5296 26.1909 35.6062 27.1328 34.0898 27.137C29.1251 27.1512 24.1601 27.1549 19.1949 27.1483C15.204 27.1483 11.2129 27.1453 7.22176 27.1395C5.49481 27.1366 4.63355 26.2267 4.63475 24.4531C4.63876 19.5666 4.64077 14.6792 4.64077 9.79078C4.64077 9.36082 4.56939 8.71838 4.63435 8.07178C6.64357 9.84577 8.62312 11.6681 10.4483 13.2825C13.1965 15.7153 15.9437 18.1498 18.6901 20.586C19.9499 21.6992 21.2201 21.7005 22.4763 20.5901C25.518 17.9015 28.5584 15.2109 31.5974 12.5184C31.7855 12.373 31.8079 12.3409 32.0132 12.2468C32.006 12.5633 32.0923 12.8744 32.2606 13.1384C32.6002 13.0159 32.8745 12.9471 33.4948 12.5626C34.2442 12.0976 34.9735 11.2602 34.9735 11.2602C35.1815 11.6519 35.4794 11.9841 35.8408 12.2272C36.1559 12.4401 36.192 12.388 36.5385 12.533C36.5425 16.4722 36.5381 20.7326 36.532 24.6722Z" fill="white"/>
<path d="M31.1844 10.8636C27.757 13.9 25.0152 16.3318 21.587 19.3686C20.8713 20.0027 20.3164 20.0181 19.6251 19.4061C15.1953 15.4853 5.76827 7.27814 5.80074 7.19564C5.80074 7.19564 29.9254 7.10399 29.7233 7.19564C30.0092 7.71434 30.3336 8.07306 30.7963 8.42761C31.1972 8.73424 32.0393 8.89131 32.0393 8.89131C32.0393 8.89131 31.5982 9.28586 31.4599 9.7004C31.3368 10.0791 31.2927 10.6745 31.1844 10.8636Z" fill="white"/>
</svg>
