<svg width="28" height="26" viewBox="0 0 28 26" fill="none" xmlns="http://www.w3.org/2000/svg">
<path d="M24.3814 24.3405H3.58465C2.08696 24.3405 1.45433 23.7006 2.6581 22.808L6.696 19.8107C6.96396 19.6118 7.28883 19.5044 7.62256 19.5044H20.1888C20.5128 19.5046 20.8286 19.606 21.0921 19.7945L25.2853 22.7918C26.5153 23.6707 25.8934 24.3405 24.3814 24.3405Z" fill="white"/>
<path d="M13.5993 2.11841C10.7318 2.11841 8.40729 4.44289 8.40729 7.31046C8.40729 10.178 11.9336 17.7819 13.5993 17.7819C15.265 17.7819 18.7914 10.1775 18.7914 7.31073C18.7914 4.44396 16.4669 2.11841 13.5993 2.11841ZM13.5993 9.16141C13.216 9.16141 12.8412 9.04773 12.5225 8.83475C12.2037 8.62176 11.9553 8.31904 11.8086 7.96486C11.6619 7.61067 11.6235 7.22094 11.6983 6.84494C11.7731 6.46895 11.9577 6.12357 12.2287 5.85249C12.4998 5.58141 12.8452 5.3968 13.2212 5.32201C13.5972 5.24722 13.9869 5.28561 14.3411 5.43231C14.6953 5.57902 14.998 5.82746 15.211 6.14622C15.424 6.46497 15.5377 6.83973 15.5377 7.22309C15.5377 7.73717 15.3334 8.23019 14.9699 8.59369C14.6064 8.9572 14.1134 9.16141 13.5993 9.16141Z" fill="white"/>
</svg>
